# xmcd CD database file
#
# Track frame offsets:
#	150
#	20367
#	47405
#	65204
#	86365
#	100219
#	116927
#	135734
#	158829
#	177971
#
# Disc length: 2538 seconds
#
# Revision: 0
# Processed by: cddbd v1.5.2PL0 Copyright (c) Steve Scherf et al.
# Submitted via: CDex 1.51
#
DISCID=8209e80a
DTITLE=Sade - Soldier of love
DYEAR=2010
DGENRE=Jazz
TTITLE0=The moon and the sky
TTITLE1=Soldier of Love
TTITLE2=Morning Bird
TTITLE3=Babyfather
TTITLE4=Long Hard Road
TTITLE5=Be That Easy
TTITLE6=Bring Me Home
TTITLE7=In Another Time
TTITLE8=Skin
TTITLE9=The Safest Place
EXTD=YEAR: 2010
EXTT0=
EXTT1=
EXTT2=
EXTT3=
EXTT4=
EXTT5=
EXTT6=
EXTT7=
EXTT8=
EXTT9=
PLAYORDER=
